HIERARCHY
ROOT Hips
{
 OFFSET 0.000000 0.000000 0.000000
 CHANNELS 6 Xposition Yposition Zposition Yrotation Xrotation Zrotation
 JOINT Chest
 {
  OFFSET 0.000000 9.585900 0.002600
  CHANNELS 3 Yrotation Xrotation Zrotation
  JOINT Chest2
  {
   OFFSET 0.000000 9.601200 -0.005300
   CHANNELS 3 Yrotation Xrotation Zrotation
   JOINT Chest3
   {
    OFFSET 0.000000 9.561800 0.000000
    CHANNELS 3 Yrotation Xrotation Zrotation
    JOINT Chest4
    {
     OFFSET 0.000000 9.552100 0.000000
     CHANNELS 3 Yrotation Xrotation Zrotation
     JOINT Neck
     {
      OFFSET 0.000000 14.453000 0.000000
      CHANNELS 3 Yrotation Xrotation Zrotation
      JOINT Head
      {
       OFFSET 0.000000 8.936500 -0.011300
       CHANNELS 3 Yrotation Xrotation Zrotation
       End Site
       {
        OFFSET 0.000000 17.073600 -0.006000
       }
      }
     }
     JOINT RightCollar
     {
      OFFSET -2.921100 9.558500 0.000000
      CHANNELS 3 Yrotation Xrotation Zrotation
      JOINT RightShoulder
      {
       OFFSET -13.519700 0.000000 0.000000
       CHANNELS 3 Yrotation Xrotation Zrotation
       JOINT RightElbow
       {
        OFFSET 0.000000 -29.696600 0.000000
        CHANNELS 3 Yrotation Xrotation Zrotation
        JOINT RightWrist
        {
         OFFSET 0.000000 -24.004700 0.000000
         CHANNELS 3 Yrotation Xrotation Zrotation
         End Site
         {
          OFFSET 0.000000 -17.728500 0.000000
         }
        }
       }
      }
     }
     JOINT LeftCollar
     {
      OFFSET 2.921100 9.558500 0.000000
      CHANNELS 3 Yrotation Xrotation Zrotation
      JOINT LeftShoulder
      {
       OFFSET 13.519700 0.000000 0.000000
       CHANNELS 3 Yrotation Xrotation Zrotation
       JOINT LeftElbow
       {
        OFFSET 0.000000 -29.696600 0.000000
        CHANNELS 3 Yrotation Xrotation Zrotation
        JOINT LeftWrist
        {
         OFFSET 0.000000 -24.004700 0.000000
         CHANNELS 3 Yrotation Xrotation Zrotation
         End Site
         {
          OFFSET 0.000000 -17.728500 0.000000
         }
        }
       }
      }
     }
    }
   }
  }
 }
 JOINT RightHip
 {
  OFFSET -7.771700 -0.012900 -0.001300
  CHANNELS 3 Yrotation Xrotation Zrotation
  JOINT RightKnee
  {
   OFFSET 0.000000 -40.869800 0.001200
   CHANNELS 3 Yrotation Xrotation Zrotation
   JOINT RightAnkle
   {
    OFFSET 0.000000 -39.717900 0.002100
    CHANNELS 3 Yrotation Xrotation Zrotation
    JOINT RightToe
    {
     OFFSET 0.000000 -4.965400 11.033500
     CHANNELS 3 Yrotation Xrotation Zrotation
     End Site
     {
      OFFSET 0.000000 -1.423100 5.872300
     }
    }
   }
  }
 }
 JOINT LeftHip
 {
  OFFSET 7.771700 -0.012900 -0.001300
  CHANNELS 3 Yrotation Xrotation Zrotation
  JOINT LeftKnee
  {
   OFFSET 0.000000 -40.869800 0.001200
   CHANNELS 3 Yrotation Xrotation Zrotation
   JOINT LeftAnkle
   {
    OFFSET 0.000000 -39.717900 0.002100
    CHANNELS 3 Yrotation Xrotation Zrotation
    JOINT LeftToe
    {
     OFFSET 0.000000 -4.965400 11.033500
     CHANNELS 3 Yrotation Xrotation Zrotation
     End Site
     {
      OFFSET 0.000000 -1.423100 5.872300
     }
    }
   }
  }
 }
}
MOTION
Frames: 13
Frame Time: 0.008333
0.000000 85.388000 0.000000 0.000000 -5.767877 0.000000 0.000000 11.653817 0.000000 0.000000 -5.885947 0.000000 0.000000 -0.000000 0.000000 0.000000 -0.000000 0.000000 0.000000 12.528835 0.000000 0.000000 0.711642 0.000000 0.000000 -0.000000 0.000000 0.000000 0.000000 -90.000000 0.000000 -2.309062 0.000000 0.000000 2.309062 0.000000 0.000000 -0.000000 0.000000 0.000000 -0.000000 90.000000 0.000000 -2.309062 0.000000 0.000000 2.309062 0.000000 0.000000 8.520406 0.000000 0.000000 1.905762 0.000000 -0.000000 -4.658285 0.000000 0.000000 -0.000000 0.000000 0.000000 8.520406 0.000000 0.000000 1.905762 0.000000 -0.000000 -4.658285 0.000000 0.000000 -0.000000 0.000000
-1.151342 50.126350 35.220969 172.786859 -35.246964 -6.964317 7.020940 20.367104 7.643357 0.821550 2.867067 0.761929 1.330158 4.620755 1.236016 5.701339 17.301824 5.377661 1.403159 20.031106 3.657864 1.459959 1.412798 6.243854 2.641388 -2.155609 -4.452988 15.851187 -28.382921 -18.976876 136.194995 -44.691380 -150.756550 0.797539 -13.947949 -14.068013 -13.146438 1.926784 0.042112 1.954673 -8.101131 -0.253100 -138.383605 -57.815669 135.403276 13.325650 -13.388240 -5.760029 2.358336 -46.562861 8.374285 -69.151440 80.594660 -57.820452 0.111424 -5.613601 -2.742743 -0.289688 1.079017 -0.043738 -13.269503 -49.623627 18.653675 -136.016327 87.638621 -142.946076 0.735964 -8.413306 4.149797 -0.049682 -0.165591 0.036344
-1.147846 50.124727 35.223182 172.792869 -35.245595 -6.936091 7.090180 20.456153 7.707238 0.813079 2.871136 0.754660 1.340844 4.656686 1.247300 5.723503 17.357152 5.403400 1.412820 20.035591 3.670951 1.473825 1.421126 6.264631 2.641214 -2.105127 -4.441266 16.031293 -28.399449 -18.986569 136.233175 -44.817326 -150.680117 0.819105 -13.934801 -14.164401 -13.210262 1.929910 0.024189 1.681530 -8.162382 -0.320615 -138.223148 -57.855480 135.233721 13.270512 -13.401074 -5.887909 2.384310 -46.578985 8.352737 -69.179435 80.611252 -57.861280 0.075315 -5.599539 -2.740908 -0.281827 1.067956 -0.045660 -13.218863 -49.627480 18.620304 -135.718221 87.644461 -142.664777 0.716988 -8.416911 4.155067 -0.053965 -0.160623 0.042266
-1.148314 50.123325 35.223584 172.812284 -35.251150 -6.885711 7.116624 20.538162 7.717555 0.818696 2.892353 0.761187 1.349698 4.689261 1.257626 5.740733 17.407507 5.426719 1.416438 20.034999 3.676545 1.478786 1.420081 6.273685 2.626691 -2.045622 -4.426177 16.206658 -28.399810 -18.947813 136.229773 -44.968194 -150.558395 0.830856 -13.916619 -14.243962 -13.258115 1.936371 0.007376 1.402961 -8.218472 -0.389222 -138.034321 -57.924287 135.049929 13.202333 -13.367632 -6.000740 2.429049 -46.605428 8.316497 -69.443670 80.587570 -58.140136 -0.022641 -5.524248 -2.792169 -0.179274 0.997921 0.004785 -13.140348 -49.627148 18.544620 -135.435085 87.658542 -142.414071 0.681224 -8.408438 4.191066 -0.056962 -0.163801 0.033159
-1.147917 50.119962 35.227100 172.841248 -35.234201 -6.848017 7.124873 20.597481 7.727455 0.801898 2.866867 0.739339 1.379219 4.762831 1.294450 5.751614 17.453593 5.446743 1.418389 20.032016 3.674604 1.482803 1.414509 6.269680 2.612139 -1.979780 -4.410048 16.355578 -28.394416 -18.862167 136.180762 -45.142397 -150.382727 0.829569 -13.889572 -14.301962 -13.284630 1.940990 -0.011807 1.131164 -8.264632 -0.451583 -137.825159 -58.015828 134.856107 13.125452 -13.289122 -6.108364 2.458141 -46.641275 8.271023 -69.501680 80.610542 -58.221389 -0.070138 -5.507590 -2.807211 -0.162343 0.985507 0.016898 -13.074109 -49.653873 18.464862 -134.819978 87.662217 -141.803716 0.668850 -8.401494 4.205868 -0.050165 -0.160589 0.027786
-1.144824 50.118147 35.229089 172.844189 -35.233126 -6.814242 7.153840 20.667261 7.752232 0.789877 2.841945 0.719796 1.399872 4.830052 1.327002 5.755000 17.495231 5.462936 1.421163 20.028901 3.666487 1.490089 1.408487 6.254188 2.604741 -1.907775 -4.392452 16.462316 -28.386727 -18.736040 136.097320 -45.332115 -150.161677 0.821594 -13.847492 -14.342200 -13.288284 1.940924 -0.033163 0.880192 -8.296244 -0.504661 -137.615067 -58.124003 134.664540 13.035375 -13.167673 -6.213757 2.489338 -46.658357 8.249191 -69.427426 80.653955 -58.180710 -0.093848 -5.497783 -2.791085 -0.192510 0.983927 0.002285 -12.999075 -49.659928 18.420127 -134.223975 87.661339 -141.223030 0.650702 -8.401345 4.226355 -0.050068 -0.158589 0.027716
-1.144634 50.114315 35.232749 172.864568 -35.211110 -6.781915 7.137701 20.685922 7.732339 0.832881 2.956894 0.785930 1.370821 4.788239 1.293202 5.752426 17.533432 5.476919 1.423718 20.026120 3.653645 1.498496 1.402938 6.230078 2.600039 -1.834749 -4.374343 16.530055 -28.369514 -18.576401 135.980250 -45.519675 -149.908150 0.815949 -13.786721 -14.373024 -13.281885 1.932109 -0.053362 0.679059 -8.310866 -0.554339 -137.423913 -58.239071 134.478467 12.936774 -13.013246 -6.316369 2.504326 -46.702351 8.227851 -69.560449 80.658691 -58.344595 -0.115560 -5.480045 -2.820991 -0.183390 0.970152 0.031021 -12.930158 -49.688884 18.373527 -133.944917 87.674448 -140.968804 0.611831 -8.399228 4.242011 -0.059860 -0.153004 0.045251
-1.143152 50.110842 35.235993 172.874991 -35.190493 -6.761170 7.133747 20.702634 7.728094 0.839911 2.984954 0.800021 1.370674 4.804482 1.298447 5.751588 17.593213 5.504113 1.425152 20.023228 3.636564 1.506205 1.397099 6.198473 2.597676 -1.765204 -4.355755 16.568616 -28.335627 -18.390911 135.817996 -45.683933 -149.625915 0.821985 -13.700087 -14.399300 -13.270149 1.912701 -0.071115 0.539345 -8.310267 -0.602508 -137.262455 -58.353536 134.301773 12.838152 -12.847237 -6.413079 2.494931 -46.759683 8.265675 -69.854916 80.630682 -58.677359 -0.201190 -5.431819 -2.849551 -0.099878 0.923555 0.064856 -12.822535 -49.726575 18.306592 -133.295993 87.665621 -140.297649 0.590928 -8.397554 4.270645 -0.054229 -0.146901 0.048398
-1.144116 50.107330 35.238084 172.899282 -35.167667 -6.744134 7.144389 20.801452 7.778194 0.821710 2.907367 0.752319 1.363885 4.789448 1.287992 5.760629 17.696672 5.557858 1.425254 20.019767 3.616581 1.512205 1.390203 6.161955 2.602678 -1.699239 -4.336870 16.578556 -28.280501 -18.183345 135.603277 -45.810265 -149.317314 0.847438 -13.587945 -14.426566 -13.252500 1.885844 -0.087367 0.454952 -8.295579 -0.646585 -137.136793 -58.462311 134.141019 12.736556 -12.695253 -6.494035 2.495005 -46.795396 8.248894 -69.968354 80.630747 -58.811413 -0.212944 -5.427979 -2.855296 -0.078252 0.922953 0.043569 -12.761807 -49.758695 18.262310 -132.919309 87.668298 -139.930341 0.562562 -8.391199 4.305520 -0.056144 -0.144792 0.048764
-1.155793 50.102622 35.238009 172.950390 -35.135986 -6.688522 7.085770 20.868432 7.734931 0.824671 2.962005 0.777380 1.362890 4.821925 1.296994 5.730017 17.656733 5.521106 1.423068 20.015113 3.594891 1.509395 1.331121 6.122056 2.611960 -1.638511 -4.319013 16.564382 -28.201485 -17.961152 135.339614 -45.900496 -148.987005 0.889756 -13.466429 -14.457810 -13.234405 1.856106 -0.102417 0.418447 -8.267614 -0.688147 -137.040132 -58.557355 133.993715 12.633124 -12.575270 -6.549552 2.530856 -46.838516 8.152650 -70.131674 80.633610 -59.000616 -0.257136 -5.410000 -2.860316 -0.044664 0.898735 0.052791 -12.658289 -49.804694 18.126987 -132.581456 87.689872 -139.608879 0.525585 -8.379047 4.340176 -0.056271 -0.143155 0.049170
-1.158570 50.100601 35.236774 172.958409 -35.121374 -6.671639 7.076289 20.890614 7.729116 0.829081 3.024246 0.806963 1.360866 4.841433 1.302937 5.710279 17.660758 5.516254 1.416925 20.008174 3.570154 1.509231 1.344978 6.080230 2.614065 -1.583793 -4.298818 16.542004 -28.100445 -17.737647 135.049963 -45.965244 -148.648103 0.942969 -13.347802 -14.489210 -13.214411 1.828209 -0.118937 0.407118 -8.230596 -0.726297 -136.948302 -58.629086 133.853756 12.537043 -12.492270 -6.574151 2.539079 -46.870646 8.149255 -70.293572 80.626792 -59.184463 -0.270061 -5.399360 -2.855024 -0.037894 0.887032 0.049295 -12.585349 -49.826095 18.082246 -132.390866 87.693545 -139.420003 0.501508 -8.382693 4.364332 -0.057009 -0.142129 0.046977
-1.163940 50.099624 35.233010 172.972287 -35.112194 -6.651040 7.067367 20.965931 7.743025 0.826829 3.015879 0.801804 1.358277 4.854223 1.307441 5.695834 17.635453 5.494826 1.411985 20.045092 3.574600 1.497757 1.348897 6.030139 2.600779 -1.485672 -4.240908 16.515513 -27.982523 -17.519335 134.774984 -46.019435 -148.322550 1.004395 -13.236596 -14.517767 -13.194277 1.859069 -0.118255 0.399879 -8.188723 -0.759958 -136.843079 -58.674336 133.720033 12.453133 -12.443046 -6.565999 2.556084 -46.885854 8.120408 -70.369798 80.634957 -59.287093 -0.249316 -5.411906 -2.827322 -0.072094 0.896650 0.028655 -12.504508 -49.841355 18.020797 -132.142167 87.696059 -139.173260 0.477133 -8.386639 4.391015 -0.052745 -0.145186 0.031994
-1.165550 50.093520 35.237999 172.993537 -35.035064 -6.672404 7.054134 20.966541 7.787740 0.822752 3.007195 0.795655 1.355190 4.865370 1.312032 5.684860 17.612553 5.474299 1.397978 20.072023 3.575180 1.476001 1.322001 5.972590 2.581532 -1.397384 -4.179466 16.479081 -27.851460 -17.310960 134.549767 -46.078649 -148.034668 1.065806 -13.138488 -14.537433 -13.175012 1.889186 -0.115386 0.393569 -8.143728 -0.788216 -136.734452 -58.700729 133.602488 12.381503 -12.418977 -6.527976 2.524483 -46.969138 8.135989 -70.416762 80.641983 -59.347140 -0.217873 -5.453721 -2.811202 -0.110781 0.941404 0.007875 -12.520199 -49.924647 18.052278 -132.000248 87.694595 -139.032405 0.467518 -8.387356 4.388926 -0.058832 -0.139716 0.046196
